<?xml version="1.0" encoding="UTF-8"?>
<svg id="_圖層_1" data-name="圖層 1" xmlns="http://www.w3.org/2000/svg" viewBox="0 0 1336.52 211.36">
  <defs>
    <style>
      .cls-1, .cls-2 {
        fill: #fff;
      }

      .cls-2 {
        fill-rule: evenodd;
      }
    </style>
  </defs>
  <g>
    <path class="cls-1" d="m536.98,197.89h-143.39v-32.5l95.13-119.14h-92.76V13.62h140.76v30.88l-96.38,120.88h96.63v32.5Z"/>
    <path class="cls-1" d="m713.44,197.89h-49.5l-56.88-80.51-18.38,18.88v61.63h-37.88V13.62h37.88v75.88l71.13-75.88h49.75l-75.51,75.88,79.38,108.38Z"/>
    <path class="cls-1" d="m745.44,155.89c.68,7.5,2.59,13.25,5.74,17.25,5.78,7.25,15.82,10.88,30.11,10.88,8.5,0,15.99-1.81,22.46-5.44,6.47-3.62,9.7-9.23,9.7-16.81,0-5.75-2.58-10.13-7.75-13.13-3.31-1.83-9.83-3.96-19.56-6.38l-18.17-4.5c-11.6-2.83-20.16-6-25.66-9.5-9.83-6.08-14.74-14.5-14.74-25.25,0-12.67,4.62-22.92,13.87-30.75,9.25-7.83,21.68-11.75,37.31-11.75,20.44,0,35.18,5.92,44.21,17.75,5.66,7.5,8.4,15.59,8.24,24.25h-21.25c-.43-5.06-2.26-9.66-5.5-13.8-5.29-5.88-14.46-8.83-27.51-8.83-8.7,0-15.29,1.62-19.77,4.86-4.48,3.24-6.72,7.52-6.72,12.83,0,5.81,2.94,10.46,8.83,13.95,3.39,2.08,8.4,3.91,15.03,5.49l15.16,3.63c16.47,3.92,27.51,7.71,33.12,11.38,8.75,5.75,13.13,14.79,13.13,27.13s-4.58,22.21-13.73,30.88c-9.16,8.67-23.1,13-41.83,13-20.17,0-34.45-4.52-42.84-13.56-8.4-9.04-12.89-20.23-13.48-33.56h21.63Z"/>
    <path class="cls-1" d="m876.18,64v88.88c0,6.83,1.05,12.42,3.17,16.75,3.89,8,11.16,12,21.79,12,15.26,0,25.65-7,31.17-21,3-7.5,4.5-17.79,4.5-30.88v-65.76h22.5v133.89h-21.25l.25-19.75c-2.87,5.08-6.42,9.38-10.68,12.88-8.42,7-18.64,10.5-30.67,10.5-18.73,0-31.48-6.38-38.27-19.13-3.68-6.83-5.52-15.96-5.52-27.38v-91.01h23Z"/>
    <path class="cls-1" d="m1078.11,71.13c9.46,7.33,15.15,19.96,17.06,37.88h-21.88c-1.33-8.25-4.38-15.1-9.13-20.56-4.75-5.46-12.38-8.19-22.88-8.19-14.33,0-24.59,6.99-30.75,20.98-4,9.07-6,20.27-6,33.59s2.83,24.68,8.5,33.84c5.67,9.16,14.58,13.73,26.75,13.73,9.33,0,16.73-2.84,22.19-8.53,5.46-5.69,9.23-13.47,11.31-23.35h21.88c-2.5,17.75-8.75,30.73-18.75,38.94-10,8.21-22.8,12.31-38.38,12.31-17.5,0-31.46-6.39-41.88-19.19-10.42-12.79-15.63-28.77-15.63-47.94,0-23.5,5.71-41.79,17.13-54.88,11.42-13.08,25.96-19.63,43.63-19.63,15.08,0,27.36,3.67,36.82,11Z"/>
    <path class="cls-1" d="m1110.78,14.25h21.63v106.62l57.7-56.87h28.74l-51.46,49.78,54.34,84.1h-28.75l-42.11-68.13-18.48,17.88v50.25h-21.63V14.25Z"/>
    <path class="cls-1" d="m1246.26,155.89c.68,7.5,2.59,13.25,5.74,17.25,5.78,7.25,15.82,10.88,30.11,10.88,8.5,0,15.99-1.81,22.46-5.44,6.47-3.62,9.7-9.23,9.7-16.81,0-5.75-2.58-10.13-7.75-13.13-3.31-1.83-9.83-3.96-19.56-6.38l-18.17-4.5c-11.6-2.83-20.16-6-25.66-9.5-9.83-6.08-14.74-14.5-14.74-25.25,0-12.67,4.62-22.92,13.87-30.75,9.25-7.83,21.68-11.75,37.31-11.75,20.44,0,35.18,5.92,44.21,17.75,5.66,7.5,8.4,15.59,8.24,24.25h-21.25c-.43-5.06-2.26-9.66-5.5-13.8-5.29-5.88-14.46-8.83-27.51-8.83-8.7,0-15.29,1.62-19.77,4.86-4.48,3.24-6.72,7.52-6.72,12.83,0,5.81,2.94,10.46,8.83,13.95,3.39,2.08,8.4,3.91,15.03,5.49l15.16,3.63c16.47,3.92,27.51,7.71,33.12,11.38,8.75,5.75,13.13,14.79,13.13,27.13s-4.58,22.21-13.73,30.88c-9.16,8.67-23.1,13-41.83,13-20.17,0-34.45-4.52-42.84-13.56-8.4-9.04-12.89-20.23-13.48-33.56h21.63Z"/>
  </g>
  <g>
    <g>
      <path class="cls-2" d="m99.06,211.36v-56.39s98.36-.07,98.36-.07l-98.36-77.48V.04S0,105.7,0,105.7l99.06,105.66Z"/>
      <path class="cls-2" d="m250.14,0v56.39s-98.36.07-98.36.07l98.36,78.1v76.76s99.06-105.66,99.06-105.66L250.14,0Z"/>
    </g>
    <rect class="cls-1" x="99.06" width="151.43" height="3.52"/>
    <rect class="cls-1" x="99.06" y="207.84" width="151.43" height="3.52"/>
  </g>
</svg>