<svg width="56" height="56" viewBox="0 0 56 56" fill="none" xmlns="http://www.w3.org/2000/svg">
<g id="tg" clip-path="url(#clip0_15_79)">
<path id="Vector" d="M28 0C43.4536 0 56 12.5464 56 28C56 43.4536 43.4536 56 28 56C12.5464 56 0 43.4536 0 28C0 12.5464 12.5464 0 28 0Z" fill="white" fill-opacity="0.0509804"/>
<path id="Vector_2" d="M12.4344 27.2517C15.3947 25.7612 18.7152 24.5016 21.8006 23.2419C27.1291 21.189 32.4576 19.1563 37.8706 17.2769C38.9278 16.9485 40.8089 16.6371 41 18.0702C40.8951 20.0844 40.4925 22.0985 40.1965 24.0925C39.4776 28.5082 38.6318 32.9052 37.8063 37.3007C37.5306 38.7726 35.5227 39.5287 34.2337 38.5789C31.1466 36.681 28.0595 34.783 25.0146 32.8464C24.0217 31.9167 24.9504 30.5812 25.8401 29.9212C28.3775 27.6359 31.062 25.6791 33.4742 23.2776C34.1305 21.8444 32.2055 23.0452 31.5712 23.4124C28.1034 25.6016 24.7203 27.9256 21.0411 29.8623C19.1804 30.8105 16.9814 29.9971 15.1206 29.475C13.4493 28.8552 10.9966 28.2169 12.4344 27.2486V27.2517Z" fill="white"/>
</g>
<defs>
<clipPath id="clip0_15_79">
<rect width="56" height="56" fill="white"/>
</clipPath>
</defs>
</svg>
