<svg width="56" height="56" viewBox="0 0 56 56" fill="none" xmlns="http://www.w3.org/2000/svg">
<g id="x" clip-path="url(#clip0_15_82)">
<path id="Vector" d="M28 0C43.4536 0 56 12.5464 56 28C56 43.4536 43.4536 56 28 56C12.5464 56 0 43.4536 0 28C0 12.5464 12.5464 0 28 0Z" fill="white" fill-opacity="0.0509804"/>
<g id="Group">
<path id="Vector_2" d="M38.7769 38.2502L30.3434 25.9984L29.3897 24.6127L23.3568 15.8481L22.857 15.1221H15.4438L17.252 17.7496L25.273 29.4044L26.2268 30.7887L32.6721 40.1531L33.1718 40.8785H40.585L38.7769 38.2509V38.2502ZM34.053 39.2007L27.3572 29.4722L26.4034 28.0873L18.6336 16.7986H21.9758L28.2593 25.9278L29.213 27.3128L37.3953 39.2007H34.053Z" fill="white"/>
<path id="Vector_3" d="M26.4035 28.0873L27.3573 29.4723L26.2269 30.7881L17.5543 40.8778H15.415L25.2731 29.4037L26.4035 28.0873Z" fill="white"/>
<path id="Vector_4" d="M39.6924 15.1221L30.3435 25.9984L29.213 27.3135L28.2593 25.9285L29.3897 24.6127L35.7228 17.2419L37.5538 15.1221H39.6924Z" fill="white"/>
</g>
</g>
<defs>
<clipPath id="clip0_15_82">
<rect width="56" height="56" fill="white"/>
</clipPath>
</defs>
</svg>
