<svg width="62" height="62" viewBox="0 0 62 62" fill="none" xmlns="http://www.w3.org/2000/svg">
<g id="zkshit">
<path id="zkshit_2" d="M46.9605 46.7761C47.6515 46.3247 48.0286 46.0627 48.0286 46.0627C50.6153 43.9045 52.2555 42.7372 53.2198 41.531M53.2198 41.531C54.2854 40.2003 54.5309 38.8255 54.3233 36.0266C53.9715 31.3496 51.3139 29.7751 48.9955 28.9113M53.2198 41.531C54.87 41.9928 62.0228 45.3338 60.8762 51.8136C59.7322 58.2985 52.2175 60.0028 45.1938 60.8536C38.1676 61.7096 20.7237 58.532 20.7237 58.532M36.1124 36.011C29.271 39.1471 19.6809 41.9876 7.85836 41.5336M7.85836 41.5336C3.01393 41.3468 -0.514349 50.1145 1.65223 54.8122C3.8264 59.5073 6.92693 61.6111 20.7262 58.5346C23.5686 57.8991 26.4008 56.9964 29.104 55.964M7.85836 41.5336C5.31465 33.8191 10.6197 30.2524 13.0673 29.0617M34.5584 24.1876C32.4044 25.4431 30.286 26.3718 28.2763 27.0514M30.1645 15.656C30.1645 15.656 25.9908 17.0179 20.7237 15.656M20.7237 15.656C20.7237 15.656 13.7051 17.9776 13.6165 24.7946M20.7237 15.656C18.6406 11.0517 22.8118 8.83384 23.1358 6.27357C23.4623 3.7185 21.888 1 21.888 1C21.888 1 28.5775 2.17767 33.751 5.08034C41.1416 9.22812 42.154 15.0542 41.3365 18.4264M47.8818 49.9952C47.8818 46.7002 45.2755 44.029 42.0604 44.029H19.939C16.724 44.029 14.1176 46.7002 14.1176 49.9952M47.8818 49.9952C47.8818 53.2902 45.2755 55.9614 42.0604 55.9614H19.939C16.724 55.9614 14.1176 53.2902 14.1176 49.9952M47.8818 49.9952H14.1176M22.9535 44.029V55.9614M30.9997 44.029V55.9614M39.0459 44.029V55.9614M48.9322 28.6C48.9322 34.2216 45.527 38.7788 41.3264 38.7788C37.1258 38.7788 33.7206 34.2216 33.7206 28.6C33.7206 22.9784 37.1258 18.4212 41.3264 18.4212C45.527 18.4212 48.9322 22.9784 48.9322 28.6ZM45.042 28.6C45.042 31.3463 43.3785 33.5727 41.3264 33.5727C39.2743 33.5727 37.6108 31.3463 37.6108 28.6C37.6108 25.8537 39.2743 23.6273 41.3264 23.6273C43.3785 23.6273 45.042 25.8537 45.042 28.6ZM28.2788 28.6C28.2788 34.2216 24.8736 38.7788 20.673 38.7788C16.4725 38.7788 13.0673 34.2216 13.0673 28.6C13.0673 22.9784 16.4725 18.4212 20.673 18.4212C24.8736 18.4212 28.2788 22.9784 28.2788 28.6ZM24.3886 28.6C24.3886 31.3463 22.7251 33.5727 20.673 33.5727C18.621 33.5727 16.9575 31.3463 16.9575 28.6C16.9575 25.8537 18.621 23.6273 20.673 23.6273C22.7251 23.6273 24.3886 25.8537 24.3886 28.6Z" stroke="url(#paint0_linear_1_223)" stroke-miterlimit="10" stroke-linecap="round"/>
</g>
<defs>
<linearGradient id="paint0_linear_1_223" x1="31" y1="1" x2="31" y2="61" gradientUnits="userSpaceOnUse">
<stop stop-color="#3A71FF"/>
<stop offset="0.5" stop-color="#1755F4"/>
<stop offset="1" stop-color="#DA39A3"/>
</linearGradient>
</defs>
</svg>
