<svg width="37" height="36" viewBox="0 0 37 36" fill="none" xmlns="http://www.w3.org/2000/svg">
<g clip-path="url(#clip0_27_58)">
<path fill-rule="evenodd" clip-rule="evenodd" d="M11.7798 27.4022V22.3849L20.5301 22.3787L11.7798 15.4854V8.60083L2.9668 18.0015L11.7798 27.4022Z" fill="white"/>
<path fill-rule="evenodd" clip-rule="evenodd" d="M25.2201 8.59772V13.615L16.4697 13.6213L25.2201 20.5693V27.3983L34.033 17.9984L25.2201 8.5985V8.59772Z" fill="white"/>
<path d="M25.2524 8.59772H11.7798V8.91076H25.2524V8.59772Z" fill="white"/>
<path d="M25.2524 27.0892H11.7798V27.4022H25.2524V27.0892Z" fill="white"/>
<path d="M18.5 0.313043C20.8877 0.313043 23.2043 0.780261 25.3846 1.70296C27.4906 2.59357 29.3822 3.86922 31.0069 5.49391C32.6316 7.11861 33.9064 9.01017 34.7978 11.1162C35.7197 13.2965 36.1877 15.613 36.1877 18.0008C36.1877 20.3885 35.7197 22.705 34.7978 24.8854C33.9072 26.9914 32.6316 28.883 31.0069 30.5077C29.3822 32.1323 27.4906 33.4072 25.3846 34.2986C23.2043 35.2205 20.8877 35.6885 18.5 35.6885C16.1123 35.6885 13.7957 35.2213 11.6154 34.2986C9.50939 33.408 7.61783 32.1323 5.99313 30.5077C4.36843 28.883 3.09357 26.9914 2.20217 24.8854C1.28026 22.705 0.812261 20.3885 0.812261 18.0008C0.812261 15.613 1.28026 13.2965 2.20217 11.1162C3.09278 9.01017 4.36843 7.11861 5.99313 5.49391C7.61783 3.86922 9.50939 2.59435 11.6154 1.70296C13.7957 0.781044 16.1123 0.313043 18.5 0.313043ZM18.5 0C8.55852 0 0.5 8.05852 0.5 18C0.5 27.9415 8.55852 36 18.5 36C28.4415 36 36.5 27.9415 36.5 18C36.5 8.05852 28.4415 0 18.5 0Z" fill="white"/>
</g>
<defs>
<clipPath id="clip0_27_58">
<rect width="36" height="36" fill="white" transform="translate(0.5)"/>
</clipPath>
</defs>
</svg>
